<?xml version="1.0" encoding="utf-8"?>
<!-- Generator: Adobe Illustrator 16.0.0, SVG Export Plug-In . SVG Version: 6.00 Build 0)  -->
<!DOCTYPE svg PUBLIC "-//W3C//DTD SVG 1.1//EN" "http://www.w3.org/Graphics/SVG/1.1/DTD/svg11.dtd">
<svg version="1.1" xmlns="http://www.w3.org/2000/svg" xmlns:xlink="http://www.w3.org/1999/xlink" x="0px" y="0px"
	 width="426.872px" height="255px" viewBox="0 0 426.872 255" enable-background="new 0 0 426.872 255" xml:space="preserve">
<g id="BACKGROUND" display="none">
	<g display="inline">
		<g>
			<linearGradient id="SVGID_1_" gradientUnits="userSpaceOnUse" x1="-55.0156" y1="-142.4517" x2="419.1538" y2="331.7178">
				<stop  offset="0" style="stop-color:#3900D4"/>
				<stop  offset="0.1735" style="stop-color:#3100C0"/>
				<stop  offset="0.5285" style="stop-color:#1E008D"/>
				<stop  offset="1" style="stop-color:#000140"/>
			</linearGradient>
			<rect x="-36.564" y="-124" fill="url(#SVGID_1_)" width="500" height="500"/>
		</g>
		<g opacity="0.5">
			<path fill="#FFFFFF" d="M4.569,256.707V8.688c0-8.125,6.587-14.713,14.713-14.713h402.876c8.126,0,14.713,6.587,14.713,14.713
				v248.019c0,8.126-6.587,14.713-14.713,14.713H19.282C11.156,271.42,4.569,264.833,4.569,256.707z"/>
			<path fill="#F0F0F0" d="M4.284,256.707V8.104c0-7.781,6.307-14.088,14.088-14.088h403.787c7.78,0,14.088,6.307,14.088,14.088
				v248.603c0,7.78-6.308,14.088-14.088,14.088H18.372C10.591,270.795,4.284,264.487,4.284,256.707z"/>
			<path fill="#E1E1E1" d="M3.998,256.707V7.52c0-7.436,6.028-13.463,13.463-13.463h404.698c7.436,0,13.463,6.027,13.463,13.463
				v249.188c0,7.436-6.027,13.463-13.463,13.463H17.461C10.026,270.17,3.998,264.143,3.998,256.707z"/>
			<path fill="#D2D2D2" d="M3.712,256.707V6.935c0-7.09,5.748-12.838,12.838-12.838h405.608c7.09,0,12.838,5.748,12.838,12.838
				v249.772c0,7.09-5.748,12.838-12.838,12.838H16.55C9.46,269.545,3.712,263.797,3.712,256.707z"/>
			<path fill="#C4C4C4" d="M3.427,256.707V6.351c0-6.745,5.468-12.213,12.213-12.213h406.519c6.745,0,12.213,5.468,12.213,12.213
				v250.356c0,6.745-5.468,12.213-12.213,12.213H15.64C8.895,268.92,3.427,263.452,3.427,256.707z"/>
			<path fill="#B5B5B5" d="M3.142,256.707V5.766c0-6.399,5.188-11.588,11.588-11.588h407.429c6.4,0,11.588,5.188,11.588,11.588
				v250.941c0,6.399-5.188,11.588-11.588,11.588H14.729C8.33,268.295,3.142,263.106,3.142,256.707z"/>
			<path fill="#A6A6A6" d="M2.856,256.707V5.182c0-6.055,4.908-10.963,10.963-10.963h408.34c6.055,0,10.963,4.908,10.963,10.963
				v251.525c0,6.055-4.908,10.963-10.963,10.963H13.819C7.764,267.67,2.856,262.762,2.856,256.707z"/>
			<path fill="#979797" d="M2.57,256.707V4.598C2.57-1.112,7.199-5.74,12.908-5.74h409.25c5.71,0,10.338,4.628,10.338,10.338
				v252.109c0,5.709-4.628,10.338-10.338,10.338H12.908C7.199,267.045,2.57,262.416,2.57,256.707z"/>
			<path fill="#888888" d="M2.285,256.707V4.013c0-5.364,4.349-9.713,9.713-9.713h410.161c5.364,0,9.713,4.349,9.713,9.713v252.694
				c0,5.364-4.349,9.713-9.713,9.713H11.998C6.633,266.42,2.285,262.071,2.285,256.707z"/>
			<path fill="#797979" d="M1.999,256.707V3.429c0-5.019,4.069-9.088,9.088-9.088h411.072c5.02,0,9.088,4.069,9.088,9.088v253.278
				c0,5.02-4.068,9.088-9.088,9.088H11.087C6.068,265.795,1.999,261.727,1.999,256.707z"/>
			<path fill="#6A6A6A" d="M1.713,256.707V2.844c0-4.674,3.789-8.463,8.463-8.463h411.982c4.674,0,8.463,3.789,8.463,8.463v253.863
				c0,4.674-3.789,8.463-8.463,8.463H10.177C5.502,265.17,1.713,261.381,1.713,256.707z"/>
			<path fill="#5B5B5B" d="M1.428,256.707V2.26c0-4.329,3.509-7.838,7.838-7.838h412.893c4.329,0,7.838,3.509,7.838,7.838v254.447
				c0,4.329-3.509,7.838-7.838,7.838H9.266C4.937,264.545,1.428,261.036,1.428,256.707z"/>
			<path fill="#4D4D4D" d="M1.143,256.707V1.676c0-3.984,3.229-7.213,7.213-7.213h413.803c3.983,0,7.213,3.229,7.213,7.213v255.031
				c0,3.983-3.229,7.213-7.213,7.213H8.355C4.372,263.92,1.143,260.69,1.143,256.707z"/>
			<path fill="#3E3E3E" d="M0.857,256.707V1.091c0-3.639,2.949-6.588,6.588-6.588h414.714c3.639,0,6.588,2.949,6.588,6.588v255.616
				c0,3.639-2.949,6.588-6.588,6.588H7.445C3.806,263.295,0.857,260.346,0.857,256.707z"/>
			<path fill="#2F2F2F" d="M0.571,256.707V0.507c0-3.293,2.669-5.963,5.963-5.963h415.625c3.294,0,5.963,2.669,5.963,5.963v256.2
				c0,3.293-2.669,5.963-5.963,5.963H6.534C3.241,262.67,0.571,260,0.571,256.707z"/>
			<path fill="#202020" d="M0.286,256.707V-0.078c0-2.948,2.39-5.338,5.338-5.338h416.535c2.948,0,5.338,2.39,5.338,5.338v256.785
				c0,2.948-2.39,5.338-5.338,5.338H5.624C2.675,262.045,0.286,259.655,0.286,256.707z"/>
			<path fill="#111111" d="M422.159,261.42H4.713C2.11,261.42,0,259.31,0,256.707V-0.662c0-2.603,2.11-4.713,4.713-4.713h417.445
				c2.604,0,4.713,2.11,4.713,4.713v257.369C426.872,259.31,424.762,261.42,422.159,261.42z"/>
		</g>
	</g>
</g>
<g id="OBJECTS">
	<g>
		<linearGradient id="SVGID_2_" gradientUnits="userSpaceOnUse" x1="-1.0469" y1="-3.8501" x2="494.0885" y2="300.5794">
			<stop  offset="0.002" style="stop-color:#5500FF"/>
			<stop  offset="0.11" style="stop-color:#4E14F9"/>
			<stop  offset="0.3312" style="stop-color:#3D47EB"/>
			<stop  offset="0.6467" style="stop-color:#229AD3"/>
			<stop  offset="1" style="stop-color:#00FFB7"/>
		</linearGradient>
		<path fill="url(#SVGID_2_)" d="M422.159,261.42H4.713C2.11,261.42,0,259.31,0,256.707V-0.662c0-2.603,2.11-4.713,4.713-4.713
			h417.445c2.604,0,4.713,2.11,4.713,4.713v257.369C426.872,259.31,424.762,261.42,422.159,261.42z"/>
		<g>
			<defs>
				<path id="SVGID_3_" d="M422.159,261.42H4.713C2.11,261.42,0,259.31,0,256.707V-0.662c0-2.603,2.11-4.713,4.713-4.713h417.445
					c2.604,0,4.713,2.11,4.713,4.713v257.369C426.872,259.31,424.762,261.42,422.159,261.42z"/>
			</defs>
			<clipPath id="SVGID_4_">
				<use xlink:href="#SVGID_3_"  overflow="visible"/>
			</clipPath>
			<g clip-path="url(#SVGID_4_)">
				
					<linearGradient id="SVGID_5_" gradientUnits="userSpaceOnUse" x1="-114.272" y1="-52.9087" x2="381.7484" y2="457.5308" gradientTransform="matrix(0.9779 0.209 -0.209 0.9779 29.8253 -33.6825)">
					<stop  offset="0.002" style="stop-color:#5500FF"/>
					<stop  offset="0.11" style="stop-color:#4E14F9"/>
					<stop  offset="0.3312" style="stop-color:#3D47EB"/>
					<stop  offset="0.6467" style="stop-color:#229AD3"/>
					<stop  offset="1" style="stop-color:#00FFB7"/>
				</linearGradient>
				<path opacity="0.22" fill="url(#SVGID_5_)" d="M93.418-5.375H4.713C2.11-5.375,0-3.265,0-0.662v257.369
					c0,2.603,2.11,4.713,4.713,4.713h295.57C305.53,127.54,86.782,140.562,93.418-5.375z"/>
				<linearGradient id="SVGID_6_" gradientUnits="userSpaceOnUse" x1="-74.541" y1="22.021" x2="289.5632" y2="396.7096">
					<stop  offset="0.002" style="stop-color:#5500FF"/>
					<stop  offset="0.11" style="stop-color:#4E14F9"/>
					<stop  offset="0.3312" style="stop-color:#3D47EB"/>
					<stop  offset="0.6467" style="stop-color:#229AD3"/>
					<stop  offset="1" style="stop-color:#00FFB7"/>
				</linearGradient>
				<path fill="url(#SVGID_6_)" d="M54.21-5.375H4.713C2.11-5.375,0-3.265,0-0.662v257.369c0,2.603,2.11,4.713,4.713,4.713h275.197
					C258.252,116.956,40.919,185.402,54.21-5.375z"/>
				<linearGradient id="SVGID_7_" gradientUnits="userSpaceOnUse" x1="-152.9185" y1="-32.9922" x2="221.8281" y2="352.6481">
					<stop  offset="0.002" style="stop-color:#5500FF"/>
					<stop  offset="0.11" style="stop-color:#4E14F9"/>
					<stop  offset="0.3312" style="stop-color:#3D47EB"/>
					<stop  offset="0.6467" style="stop-color:#229AD3"/>
					<stop  offset="1" style="stop-color:#00FFB7"/>
				</linearGradient>
				<path fill="url(#SVGID_7_)" d="M0-0.662v257.369c0,2.603,2.11,4.713,4.713,4.713H210.27
					C179.222,103.549-2.618,186.512,4.403-5.344C1.948-5.181,0-3.159,0-0.662z"/>
				<linearGradient id="SVGID_8_" gradientUnits="userSpaceOnUse" x1="-60.3955" y1="107.8438" x2="308.4126" y2="487.373">
					<stop  offset="0.002" style="stop-color:#5500FF"/>
					<stop  offset="0.11" style="stop-color:#4E14F9"/>
					<stop  offset="0.3312" style="stop-color:#3D47EB"/>
					<stop  offset="0.6467" style="stop-color:#229AD3"/>
					<stop  offset="1" style="stop-color:#00FFB7"/>
				</linearGradient>
				<path fill="url(#SVGID_8_)" d="M4.713,261.42h132.806C80.896,221.33,96.681,131.264,0,111.239v145.468
					C0,259.31,2.11,261.42,4.713,261.42z"/>
				<linearGradient id="SVGID_9_" gradientUnits="userSpaceOnUse" x1="-70.0244" y1="117.2012" x2="298.7827" y2="496.7294">
					<stop  offset="0.002" style="stop-color:#5500FF"/>
					<stop  offset="0.11" style="stop-color:#4E14F9"/>
					<stop  offset="0.3312" style="stop-color:#3D47EB"/>
					<stop  offset="0.6467" style="stop-color:#229AD3"/>
					<stop  offset="1" style="stop-color:#00FFB7"/>
				</linearGradient>
				<path opacity="0.19" fill="url(#SVGID_9_)" d="M4.713,261.42h132.806c-0.33-0.233-0.644-0.477-0.968-0.713
					c-4.429-2.56-8.983-4.988-13.628-7.324c-37.263-18.735-80.33-31.512-110.811-58.694C7.803,190.847,3.753,186.71,0,182.235
					v74.472C0,259.31,2.11,261.42,4.713,261.42z"/>
				<linearGradient id="SVGID_10_" gradientUnits="userSpaceOnUse" x1="125.2432" y1="205.5146" x2="175.0191" y2="255.2906">
					<stop  offset="0.002" style="stop-color:#5500FF"/>
					<stop  offset="0.11" style="stop-color:#4E14F9"/>
					<stop  offset="0.3312" style="stop-color:#3D47EB"/>
					<stop  offset="0.6467" style="stop-color:#229AD3"/>
					<stop  offset="1" style="stop-color:#00FFB7"/>
				</linearGradient>
				<circle fill="url(#SVGID_10_)" cx="153.819" cy="234.091" r="15.876"/>
				<linearGradient id="SVGID_11_" gradientUnits="userSpaceOnUse" x1="84.3579" y1="-20.8428" x2="125.2824" y2="23.6096">
					<stop  offset="0.002" style="stop-color:#5500FF"/>
					<stop  offset="0.11" style="stop-color:#4E14F9"/>
					<stop  offset="0.3312" style="stop-color:#3D47EB"/>
					<stop  offset="0.6467" style="stop-color:#229AD3"/>
					<stop  offset="1" style="stop-color:#00FFB7"/>
				</linearGradient>
				<circle fill="url(#SVGID_11_)" cx="99.948" cy="-3.91" r="11.065"/>
				<linearGradient id="SVGID_12_" gradientUnits="userSpaceOnUse" x1="-18.6978" y1="163.2451" x2="78.4903" y2="260.4332">
					<stop  offset="0.002" style="stop-color:#5500FF"/>
					<stop  offset="0.11" style="stop-color:#4E14F9"/>
					<stop  offset="0.3312" style="stop-color:#3D47EB"/>
					<stop  offset="0.6467" style="stop-color:#229AD3"/>
					<stop  offset="1" style="stop-color:#00FFB7"/>
				</linearGradient>
				<circle opacity="0.22" fill="url(#SVGID_12_)" cx="37.098" cy="219.041" r="30.998"/>
				<linearGradient id="SVGID_13_" gradientUnits="userSpaceOnUse" x1="-51.4644" y1="-88.5586" x2="94.5964" y2="57.5022">
					<stop  offset="0.002" style="stop-color:#5500FF"/>
					<stop  offset="0.11" style="stop-color:#4E14F9"/>
					<stop  offset="0.3312" style="stop-color:#3D47EB"/>
					<stop  offset="0.6467" style="stop-color:#229AD3"/>
					<stop  offset="1" style="stop-color:#00FFB7"/>
				</linearGradient>
				<circle opacity="0.22" fill="url(#SVGID_13_)" cx="32.39" cy="-4.704" r="46.585"/>
				<linearGradient id="SVGID_14_" gradientUnits="userSpaceOnUse" x1="104.251" y1="12.6519" x2="162.7867" y2="71.1876">
					<stop  offset="0.002" style="stop-color:#5500FF"/>
					<stop  offset="0.11" style="stop-color:#4E14F9"/>
					<stop  offset="0.3312" style="stop-color:#3D47EB"/>
					<stop  offset="0.6467" style="stop-color:#229AD3"/>
					<stop  offset="1" style="stop-color:#00FFB7"/>
				</linearGradient>
				<circle opacity="0.22" fill="url(#SVGID_14_)" cx="137.855" cy="46.256" r="18.67"/>
				<linearGradient id="SVGID_15_" gradientUnits="userSpaceOnUse" x1="329.9868" y1="168.2871" x2="476.0476" y2="314.3479">
					<stop  offset="0.002" style="stop-color:#5500FF"/>
					<stop  offset="0.11" style="stop-color:#4E14F9"/>
					<stop  offset="0.3312" style="stop-color:#3D47EB"/>
					<stop  offset="0.6467" style="stop-color:#229AD3"/>
					<stop  offset="1" style="stop-color:#00FFB7"/>
				</linearGradient>
				<circle opacity="0.22" fill="url(#SVGID_15_)" cx="413.841" cy="252.142" r="46.585"/>
			</g>
			<g display="none" opacity="0.65" clip-path="url(#SVGID_4_)">
				<path display="inline" fill="#FFFFFF" d="M329.02,291.93c-31.118-59.085-90.606-71.432-153.587-84.503
					c-48.51-10.068-98.672-20.479-138.982-53.029c-20.218-16.326-31.99-37.734-34.99-63.628
					c-2.399-20.707,0.776-44.312,9.436-70.159c14.742-43.996,40.635-79.717,40.895-80.073l0.202,0.147
					c-0.26,0.355-26.133,36.049-40.861,80.01C2.485,46.506-0.686,70.073,1.709,90.743c2.993,25.826,14.734,47.177,34.898,63.459
					c40.263,32.513,90.395,42.917,138.875,52.979c63.041,13.084,122.584,25.442,153.757,84.631L329.02,291.93z"/>
				<path display="inline" fill="#FFFFFF" d="M315.315,293.763c-28.345-53.819-82.532-66.666-139.9-80.268
					c-47.327-11.22-96.265-22.822-134.518-58.187c-18.775-17.357-30.345-39.034-34.385-64.425
					C3.28,70.577,4.83,47.862,11.118,23.371c10.705-41.69,31.729-74.515,31.94-74.841l0.21,0.136
					c-0.211,0.326-21.216,33.121-31.91,74.773c-6.279,24.457-7.826,47.137-4.6,67.409c4.032,25.333,15.575,46.958,34.308,64.277
					c38.205,35.319,87.11,46.914,134.406,58.127c57.425,13.615,111.666,26.475,140.063,80.394L315.315,293.763z"/>
				<path display="inline" fill="#FFFFFF" d="M301.61,295.596c-25.647-48.697-74.706-61.913-126.645-75.904
					c-46.031-12.4-93.628-25.223-129.623-63.473c-17.348-18.435-28.721-40.406-33.805-65.304C7.471,71,7.396,49.179,11.317,26.059
					C17.992-13.3,34.162-43.178,34.325-43.475l0.22,0.12c-0.163,0.297-16.315,30.144-22.982,69.463
					c-3.915,23.088-3.84,44.877,0.22,64.761c5.075,24.85,16.427,46.78,33.741,65.178c35.946,38.199,83.509,51.012,129.506,63.402
					c51.994,14.007,101.103,27.236,126.8,76.029L301.61,295.596z"/>
				<path display="inline" fill="#FFFFFF" d="M287.906,297.429c-23.027-43.723-67.123-57.172-113.807-71.41
					c-44.623-13.609-90.765-27.682-124.312-68.89c-15.923-19.56-27.104-41.857-33.231-66.273
					c-4.902-19.532-6.599-40.454-5.045-62.187C14.157-8.332,25.476-35.209,25.59-35.477l0.229,0.098
					c-0.114,0.267-11.418,27.113-14.06,64.074C10.209,50.4,11.905,71.295,16.8,90.8c6.119,24.378,17.283,46.642,33.182,66.171
					c33.499,41.148,79.603,55.211,124.19,68.81c46.736,14.253,90.878,27.717,113.955,71.531L287.906,297.429z"/>
				<path display="inline" fill="#FFFFFF" d="M274.201,299.262c-20.486-38.898-59.772-52.435-101.363-66.765
					c-21.219-7.312-43.16-14.871-63.632-26.123c-23.15-12.724-41.131-28.535-54.971-48.337
					c-14.491-20.733-25.474-43.387-32.643-67.333c-5.735-19.156-9.057-39.177-9.872-59.506c-1.11-27.696,2.874-50.49,5.135-58.672
					l0.241,0.066c-2.259,8.172-6.237,30.938-5.126,58.606c0.815,20.307,4.133,40.305,9.863,59.44
					c7.162,23.918,18.132,46.546,32.606,67.256c13.817,19.77,31.771,35.556,54.887,48.261
					c20.453,11.241,42.384,18.798,63.592,26.105c41.64,14.347,80.971,27.898,101.503,66.884L274.201,299.262z"/>
				<path display="inline" fill="#FFFFFF" d="M260.496,301.095c-18.025-34.226-52.647-47.688-89.301-61.941
					c-20.362-7.918-41.417-16.105-60.942-28.254c-22.11-13.756-38.979-30.75-51.571-51.953
					c-13.039-21.954-23.811-44.995-32.016-68.48c-6.564-18.789-11.51-37.904-14.7-56.813C6.533,1.453,8.106-19.258,8.123-19.464
					l0.249,0.02c-0.017,0.206-1.587,20.893,3.841,53.064c3.188,18.895,8.131,37.994,14.69,56.769
					c8.199,23.468,18.963,46.491,31.993,68.43c12.571,21.167,29.414,38.134,51.489,51.868
					c19.505,12.136,40.549,20.319,60.901,28.232c36.699,14.271,71.362,27.75,89.431,62.058L260.496,301.095z"/>
				<path display="inline" fill="#FFFFFF" d="M246.792,302.929c-15.647-29.71-45.746-42.918-77.612-56.902
					c-19.438-8.529-39.536-17.35-58.059-30.431c-21.012-14.84-36.71-33.072-47.992-55.741
					C48.685,130.832,28.136,85.792,12.266,36.039C2.774,6.281-0.572-11.27-0.605-11.443l0.246-0.046
					c0.032,0.173,3.377,17.713,12.865,47.458c8.757,27.453,24.687,71.211,50.847,123.775c11.263,22.631,26.935,40.833,47.913,55.648
					c18.502,13.066,38.589,21.882,58.015,30.406c31.907,14.002,62.044,27.228,77.732,57.014L246.792,302.929z"/>
				<path display="inline" fill="#FFFFFF" d="M233.086,304.762c-13.354-25.357-39.076-38.104-66.307-51.6
					c-18.438-9.138-37.503-18.587-54.967-32.645c-19.856-15.984-34.326-35.53-44.236-59.755
					c-22.711-55.515-42.409-97.198-54.935-122.39C-0.93,11.077-9.237-3.274-9.319-3.416l0.216-0.126
					c0.083,0.142,8.393,14.499,21.968,41.8c12.528,25.197,32.229,66.887,54.944,122.411c9.894,24.184,24.339,43.696,44.161,59.653
					c17.443,14.041,36.496,23.484,54.921,32.615c27.268,13.515,53.024,26.278,66.417,51.707L233.086,304.762z"/>
				<path display="inline" fill="#FFFFFF" d="M219.381,306.595c-11.157-21.185-32.659-33.236-55.424-45.996
					c-34.191-19.164-72.943-40.886-91.932-98.927c-8.452-25.834-18.446-50.168-29.705-72.326
					C33.315,71.621,23.484,55.24,13.102,40.66C-4.573,15.84-17.888,4.714-18.02,4.604l0.159-0.192
					c0.133,0.109,13.473,11.257,31.166,36.104c10.39,14.59,20.227,30.981,29.239,48.717c11.264,22.169,21.263,46.516,29.719,72.361
					c18.959,57.949,57.667,79.645,91.817,98.786c22.798,12.778,44.331,24.849,55.522,46.098L219.381,306.595z"/>
				<path display="inline" fill="#FFFFFF" d="M205.676,308.428c-9.065-17.214-25.731-27.802-45.029-40.062
					c-15.415-9.793-32.887-20.893-48.038-37.058c-17.35-18.51-29.169-40.991-36.134-68.729
					c-6.821-27.166-16.492-51.956-28.744-73.681c-9.801-17.378-21.265-32.845-34.076-45.97C-3.793,25.05-20.383,15.279-26.718,12.61
					l0.097-0.23c6.351,2.676,22.979,12.467,40.456,30.374C26.66,55.895,38.138,71.379,47.949,88.775
					c12.263,21.744,21.942,46.555,28.768,73.743c6.954,27.695,18.754,50.142,36.074,68.619c15.13,16.142,32.587,27.232,47.99,37.018
					c19.328,12.278,36.02,22.883,45.116,40.155L205.676,308.428z"/>
				<path display="inline" fill="#FFFFFF" d="M191.972,310.261c-7.099-13.479-20.134-22.893-35.228-33.793
					c-28.407-20.515-63.761-46.046-75.82-112.979c-5.134-28.501-14.447-53.748-27.68-75.04
					C42.661,71.417,29.559,56.863,14.303,45.191c-25.972-19.871-49.49-24.542-49.725-24.586l0.047-0.245
					c0.235,0.045,23.811,4.727,49.83,24.633c15.28,11.69,28.402,26.266,39.003,43.324c13.249,21.319,22.573,46.595,27.713,75.126
					c12.041,66.835,47.349,92.334,75.72,112.822c15.119,10.918,28.176,20.347,35.302,33.878L191.972,310.261z"/>
				<path display="inline" fill="#FFFFFF" d="M178.267,312.094c-5.281-10.027-14.955-17.998-26.156-27.229
					c-12.792-10.541-27.291-22.488-39.782-40.967c-14.487-21.432-23.304-47.437-26.954-79.503
					c-3.395-29.825-12.317-55.524-26.517-76.381C47.5,71.33,32.756,57.688,15.038,47.465c-30.17-17.405-58.885-18.858-59.171-18.871
					l0.011-0.25c0.287,0.013,29.063,1.469,59.286,18.905C32.914,57.49,47.685,71.158,59.065,87.874
					c14.224,20.892,23.159,46.627,26.559,76.495c3.646,32.024,12.449,57.993,26.913,79.391
					c12.47,18.448,26.955,30.384,39.734,40.914c11.222,9.247,20.914,17.232,26.218,27.304L178.267,312.094z"/>
				<path display="inline" fill="#FFFFFF" d="M164.562,313.927c-3.644-6.919-10.295-13.204-17.998-20.481
					c-10.69-10.1-23.994-22.67-34.968-42.357c-12.859-23.068-19.98-51.128-21.77-85.782c-2.085-40.392-15.667-72.104-40.368-94.257
					c-9.637-8.643-21.012-15.833-33.808-21.372c-10.238-4.431-21.404-7.82-33.188-10.073c-20.066-3.836-35.165-3.031-35.313-3.022
					l-0.015-0.25c0.149-0.008,15.271-0.816,35.367,3.025c11.802,2.256,22.986,5.65,33.243,10.088
					c12.822,5.549,24.22,12.754,33.879,21.416c24.753,22.199,38.364,53.97,40.453,94.431c1.787,34.615,8.897,62.64,21.738,85.674
					c10.956,19.654,24.244,32.21,34.921,42.298c7.719,7.293,14.385,13.591,18.048,20.546L164.562,313.927z"/>
				<path display="inline" fill="#FFFFFF" d="M150.858,315.76c-2.23-4.235-6.093-8.446-10.983-13.777
					c-17.272-18.83-46.181-50.346-45.597-135.769c0.269-39.328-11.578-69.863-35.214-90.756
					C48.581,66.19,35.717,58.799,20.829,53.49C8.916,49.242-4.313,46.31-18.488,44.774c-24.137-2.612-42.895-0.23-43.082-0.207
					l-0.032-0.248c0.186-0.025,18.974-2.411,43.141,0.206C-4.266,46.063,8.981,49,20.913,53.254
					c14.918,5.32,27.81,12.727,38.317,22.016c23.692,20.944,35.568,51.542,35.298,90.946
					c-0.584,85.324,28.283,116.795,45.531,135.598c4.902,5.345,8.774,9.566,11.02,13.829L150.858,315.76z"/>
				<path display="inline" fill="#FFFFFF" d="M137.153,317.593c-1.097-2.082-2.994-4.487-5.395-7.532
					c-12.604-15.981-38.83-49.237-33.028-142.937c2.383-38.488-7.829-68.112-30.354-88.049
					c-11.13-9.852-25.344-17.377-42.248-22.366c-13.527-3.993-28.796-6.379-45.384-7.095c-28.24-1.213-50.813,2.898-51.038,2.94
					l-0.046-0.246c0.226-0.042,22.82-4.158,51.094-2.943c16.608,0.716,31.897,3.106,45.444,7.104
					c16.938,5,31.185,12.542,42.343,22.419c22.585,19.99,32.826,49.682,30.438,88.251c-5.796,93.604,20.39,126.809,32.975,142.767
					c2.409,3.055,4.312,5.468,5.419,7.569L137.153,317.593z"/>
				<path display="inline" fill="#FFFFFF" d="M123.448,319.427c-0.318-0.604-0.878-1.439-1.587-2.496
					c-3.616-5.389-11.141-16.6-16.403-39.583c-6.525-28.494-7.29-65.272-2.274-109.314c4.311-37.853-4.382-66.779-25.838-85.977
					C65.731,71.665,50.287,64.066,31.44,59.473c-15.082-3.677-32.36-5.451-51.367-5.264c-32.357,0.313-58.827,6.271-59.09,6.332
					l-0.056-0.244c0.264-0.06,26.76-6.025,59.144-6.337c19.026-0.177,36.326,1.59,51.428,5.271
					c18.886,4.604,34.367,12.221,46.011,22.64c21.52,19.255,30.241,48.254,25.92,86.192c-5.012,44.014-4.249,80.765,2.27,109.23
					c5.252,22.938,12.759,34.124,16.367,39.499c0.713,1.063,1.277,1.902,1.602,2.519L123.448,319.427z"/>
				<path display="inline" fill="#FFFFFF" d="M109.747,321.266c-0.053-0.089-5.331-9.145-8.205-32.357
					c-2.651-21.409-3.745-59.601,6.094-119.964c6.095-37.394-1.191-65.793-21.657-84.411C74.012,73.648,57.437,66.031,36.714,61.895
					c-16.587-3.311-35.852-4.411-57.26-3.271c-36.458,1.942-66.892,9.822-67.195,9.902l-0.063-0.242
					c0.303-0.079,30.758-7.965,67.241-9.909c21.431-1.142,40.717-0.04,57.325,3.274c20.77,4.145,37.386,11.782,49.387,22.699
					c20.532,18.678,27.845,47.153,21.736,84.637c-5.428,33.301-10.891,81.134-6.093,119.892c2.867,23.162,8.119,32.172,8.171,32.26
					L109.747,321.266z"/>
			</g>
		</g>
		<g display="none">
			<g display="inline">
				<g>
					<text transform="matrix(1 0 0 1 219.645 30.79)" fill="#FFFFFF" font-family="'Montserrat-Regular'" font-size="5.1018">HOME</text>
					<text transform="matrix(1 0 0 1 267.6509 30.79)" fill="#FFFFFF" font-family="'Montserrat-Regular'" font-size="5.1018">ABOUT US</text>
					<text transform="matrix(1 0 0 1 321.3599 30.79)" fill="#FFFFFF" font-family="'Montserrat-Regular'" font-size="5.1018">SERVICES</text>
					<text transform="matrix(1 0 0 1 370.2505 30.79)" fill="#FFFFFF" font-family="'Montserrat-Regular'" font-size="5.1018">CONTACT US</text>
				</g>
			</g>
			<g display="inline">
				<text transform="matrix(1 0 0 1 218.7153 99.0923)"><tspan x="0" y="0" fill="#FFFFFF" font-family="'Montserrat-SemiBold'" font-size="16.847">Abstract</tspan><tspan x="0" y="20.216" fill="#FFFFFF" font-family="'Montserrat-SemiBold'" font-size="16.847">Landing Page</tspan></text>
			</g>
			<g display="inline">
				<rect x="218.72" y="135.044" fill="none" width="159.541" height="44.27"/>
				<text transform="matrix(1 0 0 1 218.7202 139.0117)"><tspan x="0" y="0" fill="#FFFFFF" font-family="'Montserrat-Light'" font-size="5.3482">Lorem ipsum dolor sit amet, consectetuer adipiscing elit, sed </tspan><tspan x="0" y="6.418" fill="#FFFFFF" font-family="'Montserrat-Light'" font-size="5.3482">diam nonummy nibh euismod tincidunt ut laoreet dolore </tspan><tspan x="0" y="12.836" fill="#FFFFFF" font-family="'Montserrat-Light'" font-size="5.3482">magna aliquam erat volutpat. Ut wisi enim ad minim </tspan><tspan x="0" y="19.254" fill="#FFFFFF" font-family="'Montserrat-Light'" font-size="5.3482">veniam, quis nostrud exerci tation ullamcorper suscipit </tspan><tspan x="0" y="25.672" fill="#FFFFFF" font-family="'Montserrat-Light'" font-size="5.3482">lobortis nisl ut aliquip ex ea commodo consequat. Duis </tspan><tspan x="0" y="32.09" fill="#FFFFFF" font-family="'Montserrat-Light'" font-size="5.3482">autem vel eum iriure dolor in hendrerit in.</tspan></text>
			</g>
			<g display="inline">
				<path fill="none" stroke="#FFFFFF" stroke-miterlimit="10" d="M272.866,202.729H225.94c-3.987,0-7.22-3.232-7.22-7.22l0,0
					c0-3.987,3.232-7.22,7.22-7.22h46.926c3.986,0,7.219,3.232,7.219,7.22l0,0C280.084,199.497,276.852,202.729,272.866,202.729z"/>
				<g>
					<text transform="matrix(1 0 0 1 230.6841 196.9805)" fill="#FFFFFF" font-family="'Montserrat-SemiBold'" font-size="5.3482">GET STARTED</text>
				</g>
			</g>
			<g display="inline">
				<g>
					<g>
						<text transform="matrix(1 0 0 1 48.7847 35.1387)"><tspan x="0" y="0" fill="#FFFFFF" font-family="'Montserrat-Bold'" font-size="8.0712">LOGO</tspan><tspan x="23.511" y="0" fill="#FFFFFF" font-family="'Montserrat-Regular'" font-size="8.0712">HERE</tspan></text>
					</g>
				</g>
				<linearGradient id="SVGID_16_" gradientUnits="userSpaceOnUse" x1="36.7627" y1="12.2407" x2="36.7627" y2="44.3845">
					<stop  offset="0.002" style="stop-color:#5500FF"/>
					<stop  offset="0.1377" style="stop-color:#4C14FF"/>
					<stop  offset="0.4154" style="stop-color:#3647FF"/>
					<stop  offset="0.8071" style="stop-color:#1399FF"/>
					<stop  offset="1" style="stop-color:#00C4FF"/>
				</linearGradient>
				<path fill="url(#SVGID_16_)" d="M44.714,29.104l-0.777-0.777l-4.311-4.311c-1.582-1.582-4.146-1.582-5.729,0l-4.311,4.311
					l-0.777,0.777c-1.582,1.582-1.582,4.146,0,5.729l5.088,5.088c1.582,1.582,4.146,1.582,5.729,0l5.087-5.088
					C46.296,33.25,46.296,30.686,44.714,29.104z"/>
				<linearGradient id="SVGID_17_" gradientUnits="userSpaceOnUse" x1="36.7627" y1="66.8311" x2="36.7627" y2="22.1516">
					<stop  offset="0.002" style="stop-color:#5500FF"/>
					<stop  offset="0.1377" style="stop-color:#4C14FF"/>
					<stop  offset="0.4154" style="stop-color:#3647FF"/>
					<stop  offset="0.8071" style="stop-color:#1399FF"/>
					<stop  offset="1" style="stop-color:#00C4FF"/>
				</linearGradient>
				<path fill="url(#SVGID_17_)" d="M39.627,32.638l4.311-4.311l-4.311-4.311c-1.582-1.582-4.146-1.582-5.729,0l-4.311,4.311
					l4.311,4.311C35.48,34.22,38.045,34.22,39.627,32.638z"/>
			</g>
		</g>
	</g>
</g>
<g id="DESIGNED_BY_FREEPIK" display="none">
	<g display="inline">
		<g id="XMLID_29_">
			<g id="XMLID_48_">
				<path id="XMLID_56_" fill="#F9FBFC" d="M223.54,341.466c-0.432,0.442-0.803,0.931-1.107,1.453l-0.466-0.241
					c-0.066-0.298-0.349-0.503-0.659-0.467c-0.33,0.039-0.567,0.339-0.528,0.67s0.339,0.568,0.67,0.529
					c0.065-0.008,0.127-0.026,0.184-0.053l0.451,0.234c-0.251,0.554-0.433,1.139-0.539,1.744l0.746,0.131
					c0.23-1.306,0.85-2.506,1.792-3.472L223.54,341.466z"/>
				<path id="XMLID_55_" fill="#F9FBFC" d="M229.028,339.163c-0.171,0-0.341,0.007-0.51,0.018l-0.073-0.626
					c0.188-0.149,0.296-0.39,0.266-0.645c-0.046-0.394-0.402-0.675-0.796-0.629c-0.393,0.047-0.674,0.402-0.628,0.796
					c0.03,0.254,0.189,0.461,0.405,0.563l0.073,0.624c-0.714,0.116-1.403,0.332-2.06,0.646l0.327,0.684
					c0.934-0.447,1.941-0.673,2.995-0.673c0.496,0,0.993,0.053,1.475,0.157l0.161-0.741
					C230.128,339.223,229.579,339.163,229.028,339.163z"/>
				<path id="XMLID_54_" fill="#F9FBFC" d="M235.63,341.711c0.331-0.041,0.566-0.342,0.525-0.673
					c-0.04-0.331-0.342-0.565-0.672-0.525c-0.31,0.038-0.536,0.304-0.53,0.608l-0.416,0.363c-0.418-0.43-0.89-0.813-1.408-1.139
					l-0.403,0.641c1.134,0.715,2.021,1.727,2.563,2.926l0.69-0.313c-0.251-0.555-0.567-1.072-0.942-1.545l0.402-0.352
					C235.5,341.716,235.565,341.719,235.63,341.711z"/>
				<path id="XMLID_53_" fill="#F9FBFC" d="M228.48,349.372c-0.386,0.023-0.774,0.034-1.157,0.034c-0.88,0-1.732-0.061-2.479-0.179
					c-0.39-0.063-0.846-0.155-1.27-0.292c1.046,1.86,3.069,3.125,5.388,3.125c2.855,0,5.263-1.916,5.95-4.504
					c-0.682,0.449-1.506,0.825-2.459,1.123C231.275,349.047,229.899,349.286,228.48,349.372z"/>
				<path id="XMLID_49_" fill="#F9FBFC" d="M229.028,340.68c-3.353,0-6.08,2.666-6.08,5.943c0,0.426,0.047,0.849,0.138,1.262
					c0.674,0.482,2.706,0.89,5.348,0.73c2.879-0.173,5.297-0.957,6.672-2.158c-0.006-0.195-0.021-0.391-0.045-0.582
					C234.679,342.913,232.086,340.68,229.028,340.68z M226.869,347.194c-1.021,0-1.85-0.83-1.85-1.85c0-1.021,0.829-1.85,1.85-1.85
					c1.02,0,1.85,0.829,1.85,1.85C228.718,346.364,227.888,347.194,226.869,347.194z M231.606,346.286c-0.75,0-1.36-0.61-1.36-1.36
					s0.61-1.36,1.36-1.36s1.36,0.61,1.36,1.36S232.356,346.286,231.606,346.286z"/>
			</g>
			<path id="XMLID_46_" fill="#F9FBFC" d="M245.031,342.547c-0.294-0.116-0.805-0.309-1.382-0.237
				c-0.551,0.068-0.844,0.341-0.844,1.007v0.865h2.228v1.718h-2.228v5.454h-1.932v-5.454h-1.34v-1.718h1.34v-0.888
				c0-1.681,0.896-2.783,2.568-2.783c0.643,0,1.157,0.122,1.59,0.309L245.031,342.547z"/>
			<path id="XMLID_44_" fill="#F9FBFC" d="M249.734,345.879c-0.177-0.03-0.357-0.047-0.526-0.047c-0.896,0-1.51,0.548-1.51,1.614
				v3.907h-1.932v-7.172h1.872v0.785c0.452-0.674,1.141-0.978,2.021-0.978c0.414,0,0.848,0.128,1.094,0.337L249.734,345.879z"/>
			<path id="XMLID_41_" fill="#F9FBFC" d="M257.401,347.757c0,0.222-0.015,0.488-0.037,0.651h-5.084
				c0.207,1.036,0.933,1.487,1.843,1.487c0.621,0,1.295-0.251,1.813-0.688l1.133,1.243c-0.814,0.747-1.851,1.088-3.057,1.088
				c-2.198,0-3.723-1.495-3.723-3.753c0-2.257,1.48-3.797,3.626-3.797C255.98,343.989,257.394,345.521,257.401,347.757z
				 M252.287,347.091h3.175c-0.177-0.918-0.732-1.437-1.562-1.437C252.99,345.654,252.458,346.202,252.287,347.091z"/>
			<path id="XMLID_38_" fill="#F9FBFC" d="M265.054,347.757c0,0.222-0.015,0.488-0.037,0.651h-5.085
				c0.208,1.036,0.933,1.487,1.844,1.487c0.621,0,1.295-0.251,1.813-0.688l1.132,1.243c-0.814,0.747-1.851,1.088-3.057,1.088
				c-2.198,0-3.723-1.495-3.723-3.753c0-2.257,1.48-3.797,3.626-3.797C263.633,343.989,265.047,345.521,265.054,347.757z
				 M259.94,347.091h3.176c-0.178-0.918-0.733-1.437-1.563-1.437C260.643,345.654,260.11,346.202,259.94,347.091z"/>
			<path id="XMLID_35_" fill="#F9FBFC" d="M273.4,347.765c0,2.153-1.495,3.774-3.471,3.774c-0.963,0-1.644-0.378-2.109-0.933v3.708
				h-1.925v-10.133h1.888v0.792c0.466-0.584,1.154-0.984,2.139-0.984C271.905,343.989,273.4,345.61,273.4,347.765z M267.723,347.765
				c0,1.132,0.747,1.976,1.843,1.976c1.14,0,1.851-0.881,1.851-1.976c0-1.096-0.711-1.977-1.851-1.977
				C268.47,345.788,267.723,346.632,267.723,347.765z"/>
			<path id="XMLID_32_" fill="#F9FBFC" d="M276.503,341.836c0,0.695-0.54,1.229-1.236,1.229c-0.695,0-1.229-0.533-1.229-1.229
				c0-0.696,0.533-1.244,1.229-1.244C275.963,340.592,276.503,341.14,276.503,341.836z M276.245,351.354h-1.932v-7.172h1.932
				V351.354z"/>
			<path id="XMLID_30_" fill="#F9FBFC" d="M279.468,346.735l2.701-2.554h2.369l-3.479,3.375l3.501,3.797h-2.376l-2.716-2.901v2.901
				h-1.932v-10.657h1.932V346.735z"/>
		</g>
		<g>
			<path fill="#F9FBFC" d="M147.849,351.289v-1.055c-0.527,0.718-1.392,1.23-2.388,1.23c-1.846,0-3.149-1.406-3.149-3.706
				c0-2.256,1.289-3.721,3.149-3.721c0.952,0,1.816,0.469,2.388,1.245v-3.765h1.099v9.771H147.849z M147.849,349.37v-3.208
				c-0.396-0.615-1.245-1.143-2.124-1.143c-1.421,0-2.271,1.172-2.271,2.739s0.85,2.725,2.271,2.725
				C146.604,350.483,147.453,349.985,147.849,349.37z"/>
			<path fill="#F9FBFC" d="M150.368,347.744c0-2.051,1.464-3.706,3.486-3.706c2.139,0,3.398,1.67,3.398,3.794v0.278h-5.728
				c0.088,1.333,1.025,2.446,2.549,2.446c0.806,0,1.626-0.322,2.183-0.894l0.527,0.718c-0.703,0.703-1.655,1.084-2.813,1.084
				C151.876,351.465,150.368,349.956,150.368,347.744z M153.839,344.946c-1.509,0-2.256,1.274-2.314,2.358h4.644
				C156.154,346.25,155.451,344.946,153.839,344.946z"/>
			<path fill="#F9FBFC" d="M158.043,350.352l0.571-0.791c0.469,0.542,1.362,1.011,2.329,1.011c1.084,0,1.67-0.513,1.67-1.216
				c0-1.714-4.38-0.659-4.38-3.281c0-1.099,0.952-2.036,2.637-2.036c1.201,0,2.051,0.454,2.622,1.025l-0.513,0.762
				c-0.424-0.513-1.201-0.894-2.109-0.894c-0.967,0-1.567,0.483-1.567,1.113c0,1.553,4.379,0.527,4.379,3.281
				c0,1.187-0.952,2.139-2.783,2.139C159.742,351.465,158.761,351.113,158.043,350.352z"/>
			<path fill="#F9FBFC" d="M164.913,342.471c0-0.41,0.337-0.747,0.732-0.747c0.41,0,0.747,0.337,0.747,0.747
				s-0.336,0.732-0.747,0.732C165.25,343.203,164.913,342.881,164.913,342.471z M165.103,351.289v-7.075h1.099v7.075H165.103z"/>
			<path fill="#F9FBFC" d="M168.018,353.105l0.557-0.82c0.586,0.703,1.289,0.967,2.3,0.967c1.172,0,2.27-0.571,2.27-2.124v-1.011
				c-0.512,0.718-1.376,1.26-2.373,1.26c-1.845,0-3.149-1.377-3.149-3.662c0-2.271,1.289-3.677,3.149-3.677
				c0.952,0,1.802,0.469,2.373,1.245v-1.069h1.099v6.87c0,2.344-1.641,3.076-3.369,3.076
				C169.673,354.16,168.853,353.926,168.018,353.105z M173.145,349.253v-3.091c-0.381-0.615-1.23-1.143-2.109-1.143
				c-1.421,0-2.271,1.128-2.271,2.695c0,1.553,0.849,2.695,2.271,2.695C171.914,350.41,172.764,349.868,173.145,349.253z"/>
			<path fill="#F9FBFC" d="M180.849,351.289v-4.629c0-1.245-0.629-1.641-1.582-1.641c-0.865,0-1.685,0.527-2.095,1.099v5.171h-1.099
				v-7.075h1.099v1.025c0.498-0.586,1.464-1.201,2.519-1.201c1.479,0,2.256,0.747,2.256,2.285v4.966H180.849z"/>
			<path fill="#F9FBFC" d="M183.369,347.744c0-2.051,1.465-3.706,3.486-3.706c2.138,0,3.398,1.67,3.398,3.794v0.278h-5.728
				c0.088,1.333,1.025,2.446,2.549,2.446c0.806,0,1.625-0.322,2.183-0.894l0.527,0.718c-0.703,0.703-1.655,1.084-2.813,1.084
				C184.877,351.465,183.369,349.956,183.369,347.744z M186.84,344.946c-1.509,0-2.256,1.274-2.314,2.358h4.643
				C189.154,346.25,188.451,344.946,186.84,344.946z"/>
			<path fill="#F9FBFC" d="M196.786,351.289v-1.055c-0.527,0.718-1.392,1.23-2.388,1.23c-1.845,0-3.149-1.406-3.149-3.706
				c0-2.256,1.289-3.721,3.149-3.721c0.952,0,1.817,0.469,2.388,1.245v-3.765h1.099v9.771H196.786z M196.786,349.37v-3.208
				c-0.396-0.615-1.245-1.143-2.124-1.143c-1.421,0-2.271,1.172-2.271,2.739s0.85,2.725,2.271,2.725
				C195.541,350.483,196.39,349.985,196.786,349.37z"/>
			<path fill="#F9FBFC" d="M203.128,351.289v-9.771h1.099v3.765c0.572-0.776,1.421-1.245,2.388-1.245
				c1.846,0,3.149,1.465,3.149,3.721c0,2.3-1.304,3.706-3.149,3.706c-0.996,0-1.86-0.513-2.388-1.23v1.055H203.128z
				 M206.336,350.483c1.436,0,2.285-1.157,2.285-2.725s-0.85-2.739-2.285-2.739c-0.864,0-1.729,0.527-2.109,1.143v3.208
				C204.607,349.985,205.472,350.483,206.336,350.483z"/>
			<path fill="#F9FBFC" d="M210.964,353.062c0.161,0.073,0.425,0.117,0.601,0.117c0.483,0,0.805-0.161,1.055-0.747l0.468-1.069
				l-2.959-7.148h1.187l2.358,5.801l2.344-5.801h1.201l-3.545,8.511c-0.425,1.025-1.143,1.421-2.08,1.436
				c-0.234,0-0.601-0.044-0.805-0.103L210.964,353.062z"/>
		</g>
	</g>
</g>
</svg>
